#!OML:ASF H:\BreakDance\Project 1\Capture day 1\Session 1\Male.ASF
:FULLY-SPECIFIED
:DEGREES
678
root 24.0074 15.7951 1.67766 -321.793 264.797 320.144
lowerback 5.11313 2.33912 0.0773825
upperback 2.75325 3.03855 -1.99502
thorax 0.0799783 1.50574 -2.23906
lowerneck -2.22332 7.41111 2.97156
upperneck 7.54761 10.1236 -5.36292
head 3.31281 4.90582 -1.88127
rclavicle -1.06474e-014 1.22253e-014
rhumerus 13.3964 42.4721 -70.1397
rradius 48.1697
rwrist 18.0344
rhand -25.4647 689.438
rfingers 7.12502
rthumb 1.06272 -60.5386
lclavicle -1.06474e-014 1.22253e-014
lhumerus -11.2874 -21.4061 68.5089
lradius 46.2447
lwrist -18.8658
lhand -26.8416 -389.916
lfingers 7.12502
lthumb -0.26709 0.0640675
rfemur -28.9397 -27.5892 11.6421
rtibia 53.6908
rfoot -17.9264 -10.4687
rtoes -4.33705
lfemur -19.217 3.11908 -7.87296
ltibia 35.0207
lfoot -18.4895 7.91439
ltoes -32.2819
679
root 23.965 15.7848 1.75857 -327.726 264.072 325.868
lowerback 5.01209 2.2725 0.0849381
upperback 2.83031 2.95031 -1.99682
thorax 0.212396 1.46186 -2.23455
lowerneck -2.12002 7.45829 3.11437
upperneck 7.86509 10.1954 -5.4407
head 3.4221 4.93693 -1.92822
rclavicle -4.31363e-014 2.96189e-014
rhumerus 12.5424 41.3974 -71.3699
rradius 47.58
rwrist 18.5491
rhand -25.6961 689.148
rfingers 7.12502
rthumb 0.839262 -60.8305
lclavicle -4.31363e-014 2.96189e-014
lhumerus -11.3314 -19.0564 69.1762
lradius 45.6899
lwrist -19.1229
lhand -27.4188 -390.206
lfingers 7.12502
lthumb -0.824545 -0.227953
rfemur -28.7353 -27.5118 11.2816
rtibia 53.7099
rfoot -17.8539 -10.2232
rtoes -4.45901
lfemur -18.9056 4.22862 -7.88008
ltibia 35.3215
lfoot -18.6268 7.51243
ltoes -32.508
680
root 23.9241 15.7771 1.83413 -331.876 263.359 329.795
lowerback 4.91883 2.19872 0.0424154
upperback 2.92045 2.84991 -2.00338
thorax 0.351201 1.41107 -2.20686
lowerneck -1.99434 7.50594 3.28306
upperneck 8.13086 10.2673 -5.54333
head 3.51342 4.96933 -1.98955
rclavicle -5.7163e-014 3.50855e-014
rhumerus 11.6855 40.2966 -72.5641
rradius 47.0813
rwrist 19.2059
rhand -25.835 688.993
rfingers 7.12502
rthumb 0.705116 -60.9856
lclavicle -5.7163e-014 3.50855e-014
lhumerus -11.3725 -16.9406 69.7793
lradius 45.225
lwrist -19.1496
lhand -28.0938 -390.44
lfingers 7.12502
lthumb -1.47654 -0.465478
rfemur -28.4933 -27.4351 10.8988
rtibia 53.6827
rfoot -17.751 -9.88766
rtoes -4.80632
lfemur -18.5756 5.43898 -7.96344
ltibia 35.7039
lfoot -18.8431 7.05539
ltoes -32.7583
681
root 23.8847 15.7719 1.90469 -334.865 262.674 332.558
lowerback 4.83091 2.12992 -0.0377692
upperback 3.02875 2.75416 -2.019
thorax 0.504695 1.36185 -2.16784
lowerneck -1.89667 7.54063 3.42479
upperneck 8.36334 10.3198 -5.61824
head 3.59416 4.99269 -2.03751
rclavicle -1.2921e-015 9.74045e-015
rhumerus 10.8647 39.1927 -73.6631
rradius 46.6794
rwrist 19.8989
rhand -25.9458 688.945
rfingers 7.12502
rthumb 0.598089 -61.0344
lclavicle -1.2921e-015 9.74045e-015
lhumerus -11.369 -15.0867 70.3164
lradius 44.8042
lwrist -19.0489
lhand -28.8267 -390.643
lfingers 7.12502
lthumb -2.18432 -0.674251
rfemur -28.2276 -27.3239 10.5056
rtibia 53.6075
rfoot -17.6083 -9.5102
rtoes -5.31954
lfemur -18.2414 6.61068 -8.10007
ltibia 36.119
lfoot -19.1259 6.64889
ltoes -33.0005
682
root 23.8467 15.7693 1.97051 -337.116 262.006 334.589
lowerback 4.74842 2.07559 -0.143614
upperback 3.1245 2.67677 -2.04158
thorax 0.642325 1.3212 -2.12329
lowerneck -1.74969 7.55989 3.51686
upperneck 8.54719 10.3497 -5.65818
head 3.64166 5.00622 -2.06892
rclavicle 4.54596e-014 -2.69353e-014
rhumerus 10.0291 38.1556 -74.6743
rradius 46.3684
rwrist 20.5106
rhand -26.085 688.946
rfingers 7.12502
rthumb 0.46365 -61.0333
lclavicle 4.54596e-014 -2.69353e-014
lhumerus -11.3731 -13.4956 70.8196
lradius 44.3962
lwrist -18.9119
lhand -29.5305 -390.854
lfingers 7.12502
lthumb -2.86404 -0.893205
rfemur -27.9522 -27.1338 10.1127
rtibia 53.4833
rfoot -17.4191 -9.15053
rtoes -5.96454
lfemur -17.8938 7.62444 -8.26941
ltibia 36.5116
lfoot -19.4555 6.3744
ltoes -33.1775
683
root 23.8095 15.7694 2.03179 -338.967 261.331 336.231
lowerback 4.67158 2.05845 -0.245291
upperback 3.20464 2.64916 -2.08366
thorax 0.76393 1.30542 -2.10385
lowerneck -1.53737 7.53311 3.59545
upperneck 8.66017 10.3154 -5.68485
head 3.6465 4.99048 -2.10014
rclavicle 1.30825e-014 -1.44119e-014
rhumerus 9.17738 37.16 -75.6142
rradius 46.1086
rwrist 20.967
rhand -26.3017 688.913
rfingers 7.12502
rthumb 0.254388 -61.0669
lclavicle 1.30825e-014 -1.44119e-014
lhumerus -11.3563 -12.2141 71.2822
lradius 43.9847
lwrist -18.749
lhand -30.1037 -390.94
lfingers 7.12502
lthumb -3.41765 -0.987284
rfemur -27.6761 -26.8243 9.74135
rtibia 53.3113
rfoot -17.1966 -8.84858
rtoes -6.65815
lfemur -17.5082 8.40718 -8.44445
ltibia 36.8346
lfoot -19.8215 6.28777
ltoes -33.2576
684
root 23.7725 15.7723 2.08885 -340.623 260.638 337.694
lowerback 4.59312 2.08012 -0.326696
upperback 3.26222 2.67446 -2.13534
thorax 0.866549 1.31649 -2.10804
lowerneck -1.2341 7.452 3.65727
upperneck 8.70337 10.2081 -5.72362
head 3.60519 4.94028 -2.14027
rclavicle 1.75552e-014 -6.95746e-015
rhumerus 8.32537 36.24 -76.4766
rradius 45.8608
rwrist 21.2198
rhand -26.6333 688.783
rfingers 7.12502
rthumb -0.0658811 -61.197
lclavicle 1.75552e-014 -6.95746e-015
lhumerus -11.3376 -11.2296 71.7184
lradius 43.5768
lwrist -18.5451
lhand -30.3397 -391.231
lfingers 7.12502
lthumb -3.64553 -1.28238
rfemur -27.4048 -26.3812 9.41295
rtibia 53.0951
rfoot -16.9659 -8.61687
rtoes -7.26176
lfemur -17.0671 8.93428 -8.60467
ltibia 37.0592
lfoot -20.2269 6.4091
ltoes -33.2082
685
root 23.7352 15.7779 2.14197 -342.153 259.93 339.049
lowerback 4.49713 2.13542 -0.381454
upperback 3.30148 2.74642 -2.18935
thorax 0.963098 1.35154 -2.13073
lowerneck -0.877985 7.32784 3.71172
upperneck 8.70604 10.0447 -5.79082
head 3.53805 4.86242 -2.19346
rclavicle 1.25483e-014 3.97569e-016
rhumerus 7.49812 35.3996 -77.2603
rradius 45.6044
rwrist 21.2619
rhand -27.0905 688.543
rfingers 7.12502
rthumb -0.507526 -61.4359
lclavicle 1.25483e-014 3.97569e-016
lhumerus -11.3243 -10.5186 72.1335
lradius 43.1871
lwrist -18.2785
lhand -30.2457 -391.409
lfingers 7.12502
lthumb -3.55477 -1.45863
rfemur -27.14 -25.8217 9.13511
rtibia 52.8415
rfoot -16.7476 -8.44536
rtoes -7.73332
lfemur -16.5678 9.21973 -8.74645
ltibia 37.1779
lfoot -20.6779 6.71914
ltoes -33.0339
686
root 23.6971 15.7861 2.19143 -343.536 259.223 340.275
lowerback 4.37367 2.21534 -0.401599
upperback 3.33185 2.85343 -2.24953
thorax 1.06912 1.40499 -2.17906
lowerneck -0.530894 7.18506 3.77322
upperneck 8.69943 9.85811 -5.88751
head 3.47055 4.77233 -2.25812
rclavicle -2.29099e-014 1.94809e-014
rhumerus 6.70085 34.5923 -77.9888
rradius 45.3474
rwrist 21.1288
rhand -27.5983 688.166
rfingers 7.12502
rthumb -0.997976 -61.8117
lclavicle -2.29099e-014 1.94809e-014
lhumerus -11.3068 -10.0705 72.5168
lradius 42.8273
lwrist -17.9344
lhand -29.9335 -391.302
lfingers 7.12502
lthumb -3.25319 -1.34682
rfemur -26.8791 -25.1838 8.90068
rtibia 52.5575
rfoot -16.5452 -8.3285
rtoes -8.10063
lfemur -16.0239 9.29727 -8.88099
ltibia 37.2007
lfoot -21.1731 7.18122
ltoes -32.7999
687
root 23.658 15.7964 2.2375 -344.694 258.545 341.297
lowerback 4.22245 2.29594 -0.401407
upperback 3.36438 2.96297 -2.31212
thorax 1.19433 1.46026 -2.23961
lowerneck -0.306429 7.05459 3.80126
upperneck 8.78556 9.68955 -5.96788
head 3.45601 4.68688 -2.30504
rclavicle 7.29788e-014 -4.41302e-014
rhumerus 5.97463 33.8469 -78.6451
rradius 45.0995
rwrist 20.8555
rhand -28.0031 687.674
rfingers 7.12502
rthumb -1.38886 -62.3017
lclavicle 7.29788e-014 -4.41302e-014
lhumerus -11.2836 -9.83032 72.8608
lradius 42.4984
lwrist -17.5278
lhand -29.4954 -390.995
lfingers 7.12502
lthumb -2.83012 -1.03385
rfemur -26.615 -24.5142 8.68724
rtibia 52.2492
rfoot -16.3592 -8.25831
rtoes -8.36405
lfemur -15.4621 9.20453 -9.03067
ltibia 37.1474
lfoot -21.6923 7.76009
ltoes -32.5761
688
root 23.6179 15.8083 2.28023 -345.609 257.915 342.093
lowerback 4.05544 2.36785 -0.378453
upperback 3.36599 3.06249 -2.38681
thorax 1.29831 1.51138 -2.32456
lowerneck -0.152243 6.95693 3.83522
upperneck 8.99153 9.56522 -6.01697
head 3.4972 4.62094 -2.33699
rclavicle 2.33572e-014 -9.93923e-015
rhumerus 5.24824 33.1924 -79.2713
rradius 44.8699
rwrist 20.492
rhand -28.198 687.17
rfingers 7.12502
rthumb -1.57712 -62.8036
lclavicle 2.33572e-014 -9.93923e-015
lhumerus -11.3378 -9.81886 73.1569
lradius 42.2202
lwrist -17.0747
lhand -29.0417 -390.519
lfingers 7.12502
lthumb -2.39199 -0.552813
rfemur -26.3396 -23.8469 8.47757
rtibia 51.9224
rfoot -16.1986 -8.21128
rtoes -8.50546
lfemur -14.9043 8.98354 -9.20656
ltibia 37.0406
lfoot -22.2038 8.41328
ltoes -32.3867
689
root 23.5767 15.8209 2.31964 -346.374 257.336 342.752
lowerback 3.87252 2.43904 -0.334291
upperback 3.37888 3.16195 -2.47538
thorax 1.42521 1.56307 -2.43414
lowerneck -0.23084 6.88355 3.87227
upperneck 9.36121 9.47134 -5.99908
head 3.6372 4.56596 -2.33655
rclavicle 1.71452e-015 1.33186e-014
rhumerus 4.61748 32.6095 -79.8024
rradius 44.6715
rwrist 20.0875
rhand -28.1527 686.8
rfingers 7.12502
rthumb -1.53338 -63.174
lclavicle 1.71452e-015 1.33186e-014
lhumerus -11.3762 -10.0341 73.3833
lradius 41.9877
lwrist -16.6086
lhand -28.6868 -389.957
lfingers 7.12502
lthumb -2.04924 0.0124281
rfemur -26.0472 -23.1931 8.27927
rtibia 51.5827
rfoot -16.0646 -8.17775
rtoes -8.53289
lfemur -14.3586 8.67768 -9.39219
ltibia 36.9019
lfoot -22.6884 9.09151
ltoes -32.1857
690
root 23.5349 15.8336 2.35573 -347.055 256.803 343.34
lowerback 3.67694 2.49352 -0.292971
upperback 3.37039 3.23985 -2.54657
thorax 1.53552 1.6041 -2.52323
lowerneck -0.379419 6.84363 3.86294
upperneck 9.83085 9.42016 -5.92013
head 3.82224 4.52937 -2.30259
rclavicle -1.8313e-014 8.94531e-015
rhumerus 4.00235 32.1965 -80.2524
rradius 44.5249
rwrist 19.6983
rhand -27.8786 686.707
rfingers 7.12502
rthumb -1.26866 -63.2691
lclavicle -1.8313e-014 8.94531e-015
lhumerus -11.5082 -10.3879 73.5798
lradius 41.8136
lwrist -16.1942
lhand -28.492 -389.439
lfingers 7.12502
lthumb -1.86113 0.532946
rfemur -25.7431 -22.5577 8.1008
rtibia 51.2373
rfoot -15.9495 -8.16295
rtoes -8.54941
lfemur -13.8296 8.32346 -9.57413
ltibia 36.7497
lfoot -23.1381 9.76413
ltoes -31.9329
691
root 23.493 15.8459 2.38866 -347.686 256.306 343.892
lowerback 3.47734 2.54634 -0.243517
upperback 3.35712 3.31588 -2.61802
thorax 1.64393 1.64449 -2.61662
lowerneck -0.606923 6.81211 3.87506
upperneck 10.328 9.37685 -5.81374
head 4.03393 4.4972 -2.26019
rclavicle 1.2921e-015 -5.76476e-015
rhumerus 3.4338 31.8699 -80.6353
rradius 44.4135
rwrist 19.3936
rhand -27.4579 686.894
rfingers 7.12502
rthumb -0.862334 -63.0839
lclavicle 1.2921e-015 -5.76476e-015
lhumerus -11.6749 -10.9092 73.7209
lradius 41.7044
lwrist -15.8338
lhand -28.4622 -388.901
lfingers 7.12502
lthumb -1.8323 1.07054
rfemur -25.4432 -21.9423 7.94962
rtibia 50.8949
rfoot -15.8481 -8.16665
rtoes -8.6412
lfemur -13.3272 7.95949 -9.74402
ltibia 36.597
lfoot -23.547 10.4122
ltoes -31.6216
692
root 23.4519 15.8572 2.4187 -348.327 255.834 344.467
lowerback 3.27932 2.59571 -0.190161
upperback 3.34906 3.38733 -2.68125
thorax 1.75672 1.68266 -2.70322
lowerneck -0.872046 6.785 3.91559
upperneck 10.7761 9.33654 -5.71038
head 4.23953 4.46874 -2.22293
rclavicle 1.61016e-014 -7.15625e-015
rhumerus 2.94457 31.6257 -80.9458
rradius 44.3233
rwrist 19.1909
rhand -27.0304 687.295
rfingers 7.12502
rthumb -0.449481 -62.6839
lclavicle 1.61016e-014 -7.15625e-015
lhumerus -11.8589 -11.5524 73.8082
lradius 41.6659
lwrist -15.5282
lhand -28.5562 -388.412
lfingers 7.12502
lthumb -1.9231 1.55957
rfemur -25.1583 -21.3453 7.8371
rtibia 50.5632
rfoot -15.7497 -8.18876
rtoes -8.81099
lfemur -12.8542 7.63257 -9.88554
ltibia 36.4508
lfoot -23.9109 11.0199
ltoes -31.264
